<svg xmlns="http://www.w3.org/2000/svg" width="180.541" height="196.454" viewBox="0 0 180.541 196.454">
  <path id="Path_344" data-name="Path 344"
    d="M689.9,238.46c-20.55-26.316-57.321-37.644-87.336-20.28-21.731,12.548-32.931,39.674-26.047,62.933-17.75,23.7-18.867,56.832-14.192,86.27,1.255,2.39,6.168,2.438,7.167-1.156-4.431-26-4.778-54.739,10.121-77.266a48.279,48.279,0,0,0,6.422,9.671c17.467,20.408,61.508,25.469,72.27-5.073,5.253-14.886-5-29.99-18.79-35.358-14.963-5.805-32.25-2.145-45.376,6.422a69.55,69.55,0,0,0-12.715,10.634c-3.789-19.06,5.356-40.444,22.194-51.284,28.037-17.981,63.37-7.308,83.483,17.262C688.7,243.353,691.476,240.463,689.9,238.46ZM614.5,263.466c14.038-3.108,32.777.938,37.426,16.517,4.444,14.886-9.825,26.137-23.118,28.346a42.551,42.551,0,0,1-36.334-12.06,40.5,40.5,0,0,1-8.7-12.972C591.695,273.754,602.3,266.176,614.5,263.466Z"
    transform="translate(-380.937 -404.355) rotate(22)" fill="#dfad8a" />
</svg>