<svg xmlns="http://www.w3.org/2000/svg" width="339.603" height="314.083" viewBox="0 0 339.603 314.083">
  <path id="Path_301" data-name="Path 301"
    d="M317.377,112.547c-1.855,2.6-5.1,3.322-8.01,4.17-4.573,1.309-9.189,2.646-13.848,3.653-1.438.3-2.5-1.783-1.035-2.473,2.286-1.079,4.63-2.013,6.96-2.977s6.442-1.855,8.628-3.48l.331-.273A100.215,100.215,0,0,0,239.451,90.66l-2.286.273a30.2,30.2,0,0,1,14.064,22.059,29.249,29.249,0,0,1-28.861,33.074c-16.307,0-29.609-15.991-26.445-32.1,2.517-12.755,12.842-20.405,24.619-24.705-21.757-5.623-47.455,2.416-67.155,10.066-22.951,9.1-48.246,22-73.569,13.963A48.72,48.72,0,0,1,46.3,71.376a8.129,8.129,0,0,0-.086-1.438,67.845,67.845,0,0,1-17.616-8.182A64.8,64.8,0,0,1,.395.884C.51-.28,2.322-.309,2.221.884c-1.9,25.884,11.5,51.05,35.3,62.151a67.912,67.912,0,0,0,8.628,3.307c.575-17.012,10.584-38.409,29.379-38.985,17.975-.546,23.152,21.657,13.474,33.765-9.1,11.418-23.828,13.2-37.7,10.2A43.026,43.026,0,0,0,63.006,97.131c20.693,21.671,51.251,13.043,75.438,3.106,23.238-9.548,47.253-19.3,72.922-17.256a62.54,62.54,0,0,1,17.63,3.9,86.843,86.843,0,0,1,12.942-2,105.709,105.709,0,0,1,71.124,20.808,43.858,43.858,0,0,0-.7-5.536c-.431-3.164-.892-6.313-1.265-9.491s4.932-3.782,5.393-.719c.7,4.6,1.28,9.232,1.855,13.848C318.657,106.823,319.3,109.9,317.377,112.547ZM78.81,64.531c10.915-6.485,17.414-28.07.446-32.068-16.149-3.782-26.474,17.285-27.912,30a44.058,44.058,0,0,0-.244,5.148C60.576,69.665,70.613,69.42,78.81,64.531ZM229.2,92.386c-8.024,1.9-15.818,5.263-21.57,11.13a21.57,21.57,0,0,0,2.114,32.715c10.728,8.312,26.833,3.811,33.362-7.65,7.032-12.309.978-28-10.828-34.627C231.269,93.392,230.233,92.86,229.2,92.386Z"
    transform="translate(91.923) rotate(39)" fill="#dfad8a" />
</svg>