<svg xmlns="http://www.w3.org/2000/svg" width="254.661" height="195.289" viewBox="0 0 254.661 195.289">
  <g id="Layer_2" data-name="Layer 2" transform="translate(1.499 0.053)">
    <g id="Layer_1" data-name="Layer 1">
      <path id="Path_423" data-name="Path 423"
        d="M.5,0c1.93,72.72,34.84,130.63,82,145,28.57,8.71,76.4,5.72,92-23,8-14.74,7.51-36.25-4-50-18.15-21.65-57-19.64-78-1C77,84.78,75.18,104.18,74.76,108.61c-2.73,28.72,16.1,49.23,22.46,56.17,4.81,5.24,25,26.59,57.45,28.34,40.07,2.16,66-27.4,71.49-33.7,24.07-27.48,25.06-59.55,25-68.68"
        fill="none" stroke="#dfad8a" stroke-width="4" />
    </g>
  </g>
</svg>